<svg
  viewBox="0 0 100 100"
  fill="none"
  xmlns="http://www.w3.org/2000/svg"
  className="w-16 h-16 sm:w-20 sm:h-20 drop-shadow-[0_0_15px_rgba(34,211,238,0.4)]"
>
  {/* The Background Card */}
  <rect
    x="10"
    y="10"
    width="80"
    height="80"
    rx="24"
    fill="#121214"
    stroke="rgba(255,255,255,0.1)"
    strokeWidth="1"
  />
  
  {/* The Brain Icon */}
  <g transform="translate(26, 26) scale(2)">
    <path
      d="M12 18V5"
      stroke="#22d3ee"
      strokeWidth="2"
      strokeLinecap="round"
      strokeLinejoin="round"
      className="drop-shadow-[0_0_3px_rgba(34,211,238,0.8)]"
    />
    <path
      d="M15 13a4.17 4.17 0 0 1-3-4 4.17 4.17 0 0 1-3 4"
      stroke="#22d3ee"
      strokeWidth="2"
      strokeLinecap="round"
      strokeLinejoin="round"
    />
    <path
      d="M17.598 6.5A3 3 0 1 0 12 5a3 3 0 1 0-5.598 1.5"
      stroke="#22d3ee"
      strokeWidth="2"
      strokeLinecap="round"
      strokeLinejoin="round"
    />
    <path
      d="M17.997 5.125a4 4 0 0 1 2.526 5.77"
      stroke="#22d3ee"
      strokeWidth="2"
      strokeLinecap="round"
      strokeLinejoin="round"
    />
    <path
      d="M18 18a4 4 0 0 0 2-7.464"
      stroke="#22d3ee"
      strokeWidth="2"
      strokeLinecap="round"
      strokeLinejoin="round"
    />
    <path
      d="M19.967 17.483A4 4 0 1 1 12 18a4 4 0 1 1-7.967-.517"
      stroke="#22d3ee"
      strokeWidth="2"
      strokeLinecap="round"
      strokeLinejoin="round"
    />
    <path
      d="M6 18a4 4 0 0 1-2-7.464"
      stroke="#22d3ee"
      strokeWidth="2"
      strokeLinecap="round"
      strokeLinejoin="round"
    />
    <path
      d="M6.003 5.125a4 4 0 0 0-2.526 5.77"
      stroke="#22d3ee"
      strokeWidth="2"
      strokeLinecap="round"
      strokeLinejoin="round"
    />
  </g>
</svg>